<svg xmlns="http://www.w3.org/2000/svg" version="1.1" xmlns:xlink="http://www.w3.org/1999/xlink" xmlns:svgjs="http://svgjs.dev/svgjs" width="1000" height="1000"><style>
    #light-icon {
      display: inline;
    }
    #dark-icon {
      display: none;
    }

    @media (prefers-color-scheme: dark) {
      #light-icon {
        display: none;
      }
      #dark-icon {
        display: inline;
      }
    }
  </style><g id="light-icon"><svg xmlns="http://www.w3.org/2000/svg" version="1.1" xmlns:xlink="http://www.w3.org/1999/xlink" xmlns:svgjs="http://svgjs.dev/svgjs" width="1000" height="1000"><g clip-path="url(#SvgjsClipPath1052)"><rect width="1000" height="1000" fill="#ffffff"></rect><g transform="matrix(50,0,0,50,100,124.5)"><svg xmlns="http://www.w3.org/2000/svg" version="1.1" xmlns:xlink="http://www.w3.org/1999/xlink" xmlns:svgjs="http://svgjs.dev/svgjs" width="16" height="16"><svg xmlns="http://www.w3.org/2000/svg" width="16" height="16" fill="currentColor" class="bi bi-printer-fill" viewBox="0 0 16 16">
  <path d="M5 1a2 2 0 0 0-2 2v1h10V3a2 2 0 0 0-2-2zm6 8H5a1 1 0 0 0-1 1v3a1 1 0 0 0 1 1h6a1 1 0 0 0 1-1v-3a1 1 0 0 0-1-1"></path>
  <path d="M0 7a2 2 0 0 1 2-2h12a2 2 0 0 1 2 2v3a2 2 0 0 1-2 2h-1v-2a2 2 0 0 0-2-2H5a2 2 0 0 0-2 2v2H2a2 2 0 0 1-2-2zm2.5 1a.5.5 0 1 0 0-1 .5.5 0 0 0 0 1"></path>
</svg></svg></g></g><defs><clipPath id="SvgjsClipPath1052"><rect width="1000" height="1000" x="0" y="0" rx="350" ry="350"></rect></clipPath></defs></svg></g><g id="dark-icon"><svg xmlns="http://www.w3.org/2000/svg" version="1.1" xmlns:xlink="http://www.w3.org/1999/xlink" xmlns:svgjs="http://svgjs.dev/svgjs" width="1000" height="1000"><g><g transform="matrix(62.5,0,0,62.5,0,30.75)" style="filter: contrast(0.3846153846153846) brightness(4.5)"><svg xmlns="http://www.w3.org/2000/svg" version="1.1" xmlns:xlink="http://www.w3.org/1999/xlink" xmlns:svgjs="http://svgjs.dev/svgjs" width="16" height="16"><svg xmlns="http://www.w3.org/2000/svg" width="16" height="16" fill="currentColor" class="bi bi-printer-fill" viewBox="0 0 16 16">
  <path d="M5 1a2 2 0 0 0-2 2v1h10V3a2 2 0 0 0-2-2zm6 8H5a1 1 0 0 0-1 1v3a1 1 0 0 0 1 1h6a1 1 0 0 0 1-1v-3a1 1 0 0 0-1-1"></path>
  <path d="M0 7a2 2 0 0 1 2-2h12a2 2 0 0 1 2 2v3a2 2 0 0 1-2 2h-1v-2a2 2 0 0 0-2-2H5a2 2 0 0 0-2 2v2H2a2 2 0 0 1-2-2zm2.5 1a.5.5 0 1 0 0-1 .5.5 0 0 0 0 1"></path>
</svg></svg></g></g></svg></g></svg>